<?xml version="1.0" standalone="no"?>
<!DOCTYPE svg PUBLIC "-//W3C//DTD SVG 20010904//EN"
 "http://www.w3.org/TR/2001/REC-SVG-20010904/DTD/svg10.dtd">
<svg version="1.0" xmlns="http://www.w3.org/2000/svg"
 width="800.000000pt" height="800.000000pt" viewBox="0 0 800.000000 800.000000"
 preserveAspectRatio="xMidYMid meet">
<metadata>
Created by potrace 1.14, written by Peter Selinger 2001-2017
</metadata>
<g transform="translate(0.000000,800.000000) scale(0.100000,-0.100000)"
fill="#000000" stroke="none">
<path d="M1580 6190 c-18 -13 -44 -67 -123 -250 -5 -14 -10 -28 -9 -32 1 -5
-3 -8 -10 -8 -6 0 -8 -3 -5 -7 4 -3 -1 -15 -10 -26 -10 -10 -17 -22 -17 -26 2
-11 -9 -36 -24 -53 -8 -10 -12 -18 -7 -18 4 0 2 -6 -4 -13 -6 -8 -12 -22 -14
-33 -6 -31 -41 -111 -148 -342 -22 -46 -39 -88 -39 -93 0 -5 -5 -9 -11 -9 -5
0 -7 -5 -4 -10 4 -6 -1 -22 -9 -35 -9 -14 -14 -25 -10 -25 3 0 0 -10 -8 -22
-8 -13 -25 -54 -37 -93 -34 -105 -33 -104 -43 -65 -5 19 -11 44 -12 55 -22
126 -28 152 -33 165 -3 8 -7 22 -8 30 -2 14 -19 83 -31 125 -3 11 -10 38 -15
60 -5 22 -11 45 -12 52 -2 7 -6 15 -9 19 -4 3 -4 12 -1 20 3 8 0 14 -6 14 -6
0 -11 11 -11 24 0 23 -52 76 -74 76 -13 0 -67 -42 -62 -47 3 -3 -4 -23 -14
-44 -11 -21 -20 -45 -20 -54 0 -8 -5 -15 -11 -15 -5 0 -8 -4 -5 -8 3 -5 -2
-21 -10 -36 -7 -16 -14 -32 -14 -36 0 -5 -5 -21 -12 -37 -6 -15 -12 -30 -13
-33 0 -3 -12 -36 -25 -75 -13 -38 -25 -74 -26 -80 -1 -5 -8 -23 -15 -40 -6
-16 -13 -36 -15 -43 -1 -8 -6 -21 -10 -30 -8 -20 -7 -16 -22 -67 -6 -22 -11
-43 -12 -48 0 -4 -7 -21 -15 -37 -9 -17 -13 -30 -9 -30 4 0 1 -7 -6 -15 -7 -8
-10 -15 -7 -15 3 0 -3 -23 -14 -51 -10 -29 -16 -56 -13 -60 3 -5 1 -9 -4 -9
-5 0 -9 -6 -10 -12 -1 -15 -6 -38 -22 -98 -7 -25 -14 -65 -17 -90 -12 -123
-12 -128 12 -154 41 -44 103 -10 107 59 2 19 7 35 13 35 5 0 4 5 -2 11 -8 8
-8 20 -2 36 5 14 7 29 3 34 -3 5 0 9 6 9 6 0 9 4 6 8 -2 4 4 38 14 75 10 37
16 67 12 67 -4 0 -1 4 5 8 7 4 14 17 16 27 2 11 9 40 16 65 7 25 13 46 12 47
0 2 8 23 19 48 11 25 17 45 15 45 -2 0 2 15 10 34 8 18 11 36 8 40 -4 3 -1 6
5 6 7 0 11 3 10 8 -2 9 13 64 21 77 3 6 6 13 7 18 1 4 2 8 4 10 1 1 3 9 5 17
7 36 10 45 15 50 8 7 35 93 33 108 0 6 3 12 8 12 5 0 9 6 9 14 0 8 5 18 12 22
6 4 8 3 5 -3 -4 -6 0 -29 7 -51 8 -22 17 -53 20 -69 3 -15 8 -39 11 -53 17
-63 24 -113 19 -121 -3 -5 -1 -9 3 -9 5 0 9 -8 10 -17 2 -24 9 -58 27 -123 15
-54 21 -84 33 -145 3 -16 10 -33 16 -37 7 -4 8 -8 2 -8 -19 0 31 -28 57 -31
32 -5 75 30 90 72 5 16 14 29 18 29 5 0 7 8 6 18 -3 15 12 70 31 122 3 8 8 23
10 34 2 10 14 46 28 80 14 35 25 68 25 74 0 7 5 12 10 12 6 0 10 7 10 16 0 9
16 51 36 93 19 42 45 99 57 126 11 28 25 53 30 56 5 3 9 10 9 15 0 5 4 19 9
32 5 13 9 27 9 32 0 5 4 10 10 12 5 2 11 12 13 23 2 11 10 34 17 50 7 17 14
33 15 38 2 4 4 9 5 12 3 6 5 12 15 43 4 12 11 22 14 22 4 0 8 6 8 13 0 6 15
41 32 77 l32 65 -6 -143 c-6 -128 -10 -177 -15 -177 -1 0 -3 -18 -5 -40 -1
-22 -6 -83 -10 -135 -4 -52 -8 -101 -8 -107 0 -7 -3 -13 -6 -13 -3 0 -6 -15
-7 -33 -1 -17 -4 -45 -7 -62 -4 -16 -9 -88 -12 -159 -3 -71 -8 -133 -11 -138
-3 -4 -1 -8 5 -8 6 0 8 -7 5 -15 -4 -8 1 -17 10 -21 9 -3 16 -12 16 -20 0 -9
10 -12 31 -9 52 6 66 27 68 103 4 141 19 300 28 316 8 12 12 54 18 161 2 50 7
101 10 115 22 99 29 477 10 575 -18 92 -23 105 -46 105 -10 0 -19 4 -19 8 0
14 -26 10 -50 -8z"/>
<path d="M3428 6140 c-10 -6 -18 -7 -18 -3 0 4 -6 -3 -14 -17 -8 -16 -13 -61
-14 -125 0 -55 -1 -105 -2 -110 -1 -6 -1 -12 0 -15 1 -3 3 -39 5 -80 2 -41 4
-76 5 -77 3 -3 4 -7 15 -40 7 -22 20 -29 65 -38 26 -5 64 50 54 80 -3 11 -8
80 -10 153 l-4 133 30 -17 c16 -10 30 -21 30 -25 0 -4 11 -10 25 -13 14 -4 25
-13 25 -21 0 -8 5 -15 11 -15 5 0 17 -17 25 -37 8 -21 19 -47 24 -58 20 -45
41 -119 36 -132 -3 -7 -2 -13 3 -13 4 0 8 -15 9 -32 1 -18 4 -42 6 -53 2 -11
5 -24 6 -30 1 -5 2 -12 1 -15 -1 -3 -4 -28 -6 -56 -6 -68 -22 -139 -40 -175
-9 -16 -16 -32 -17 -36 -2 -10 -14 -25 -56 -70 -18 -19 -49 -55 -68 -79 -20
-24 -40 -41 -45 -38 -5 3 -9 -3 -9 -12 0 -10 -3 -14 -7 -11 -3 4 -13 -2 -20
-13 -8 -11 -19 -18 -24 -15 -5 4 -9 1 -9 -4 0 -6 -7 -11 -16 -11 -8 0 -12 -4
-9 -10 3 -5 -1 -10 -9 -10 -9 0 -16 -4 -16 -9 0 -5 -8 -11 -17 -15 -10 -3 -25
-10 -33 -16 -8 -5 -49 -25 -90 -43 -41 -19 -115 -53 -165 -75 -49 -23 -101
-43 -115 -46 -60 -12 -165 -56 -185 -78 -32 -34 -17 -100 25 -113 11 -3 20
-10 20 -15 0 -6 42 -27 70 -34 21 -6 70 -32 70 -38 0 -5 9 -8 20 -8 11 0 20
-4 20 -8 0 -4 10 -9 23 -10 37 -4 51 -7 65 -15 6 -5 12 -6 12 -2 0 3 16 -2 36
-10 20 -8 45 -15 55 -15 11 0 19 -4 19 -8 0 -4 8 -9 18 -10 22 -2 42 -7 67
-16 22 -9 49 -17 52 -17 2 0 17 -5 35 -10 18 -6 49 -13 68 -15 19 -3 50 -10
69 -16 19 -6 48 -12 65 -14 101 -11 155 -15 186 -16 19 0 42 -4 51 -9 9 -4 19
-5 23 -2 4 4 21 8 39 9 97 6 109 9 127 31 14 19 16 30 10 55 -5 17 -11 32 -12
33 -9 9 -109 21 -119 14 -7 -4 -36 -6 -64 -4 -180 12 -241 18 -249 23 -5 3
-48 13 -95 23 -47 11 -95 21 -106 24 -11 4 -24 7 -30 8 -5 2 -14 5 -20 8 -11
7 -64 22 -80 24 -5 0 -20 6 -32 13 -13 7 -23 10 -23 6 0 -3 -6 -1 -13 5 -8 6
-17 8 -20 4 -4 -3 -12 -1 -19 4 -7 6 -31 14 -53 18 -48 8 -131 55 -100 55 11
0 47 12 80 26 33 13 64 26 70 27 5 1 16 8 23 15 8 7 18 10 23 7 5 -4 9 -1 9 4
0 6 3 10 8 9 4 -1 29 8 55 20 27 12 52 22 57 22 4 0 13 7 20 15 7 9 15 13 18
10 3 -3 11 0 19 6 7 6 13 8 13 3 0 -5 4 -4 8 1 4 6 27 24 52 40 25 16 47 32
50 35 3 3 21 16 40 30 50 35 59 42 88 74 15 16 46 49 70 75 44 47 108 139 105
150 -1 3 4 13 11 21 19 22 44 125 51 208 8 95 -11 250 -41 329 -12 34 -20 64
-17 67 4 3 2 6 -3 6 -6 0 -16 17 -23 38 -8 20 -22 49 -32 63 -10 14 -16 29
-14 33 3 3 2 4 -1 2 -3 -3 -16 6 -28 18 -11 13 -35 32 -53 42 -17 11 -53 32
-79 48 -51 31 -118 43 -146 26z"/>
<path d="M5950 6008 c0 -4 -7 -8 -15 -8 -8 0 -14 -3 -14 -7 1 -5 0 -12 -1 -18
-6 -26 -4 -95 3 -95 5 0 6 -4 2 -9 -3 -6 -8 -38 -10 -73 -5 -55 -9 -83 -21
-123 -19 -66 -34 -128 -36 -149 -1 -14 -6 -26 -10 -26 -4 0 -7 -3 -6 -7 2 -10
-29 -121 -42 -148 -5 -11 -12 -31 -14 -45 -6 -34 -27 -92 -38 -106 -5 -7 -8
-16 -7 -20 1 -5 -7 -31 -19 -57 -12 -27 -22 -51 -22 -54 0 -3 -6 -19 -14 -36
-37 -88 -51 -122 -49 -127 1 -3 -2 -9 -7 -15 -10 -13 -35 -88 -32 -97 1 -5 -3
-8 -8 -8 -5 0 -9 -3 -9 -7 1 -5 0 -11 -1 -15 -1 -5 -3 -11 -4 -15 -1 -5 -10
-26 -20 -48 -25 -57 -37 -87 -42 -107 -2 -10 -7 -28 -10 -40 -3 -13 -6 -31 -6
-40 1 -10 -3 -18 -7 -18 -4 0 -8 -10 -9 -22 0 -13 -3 -34 -6 -48 -3 -14 -7
-40 -10 -58 -3 -18 -8 -37 -11 -42 -3 -5 -1 -11 5 -15 6 -4 8 -10 5 -15 -9
-15 33 -98 55 -110 11 -6 39 -13 62 -17 49 -7 42 -7 128 1 36 3 97 8 135 12
135 11 164 16 183 27 6 5 17 5 22 2 6 -3 10 -2 10 3 0 8 55 30 85 35 17 3 71
64 85 96 7 17 16 31 21 31 5 0 8 3 8 8 -1 4 0 9 1 12 2 7 7 32 11 60 2 14 9
28 14 32 6 5 5 8 -3 8 -9 0 -10 5 -4 18 5 9 10 44 11 77 2 33 5 63 7 67 3 5 1
8 -4 8 -6 0 -8 8 -6 18 16 59 -91 211 -194 275 -23 15 -42 24 -42 21 0 -4 -6
-2 -12 3 -7 5 -31 11 -53 12 -68 4 -80 6 -85 13 -3 4 -26 -4 -52 -17 l-46 -23
9 31 c5 17 14 34 20 37 6 4 10 10 10 14 -2 12 13 62 31 104 11 24 21 51 23 60
2 9 9 31 16 47 6 17 13 37 14 45 2 15 21 82 32 110 4 8 7 17 8 20 0 3 6 21 12
40 7 19 14 49 17 65 9 55 16 82 30 124 9 22 12 41 9 41 -4 0 -2 5 5 12 7 7 8
17 2 29 -6 10 -6 20 -1 23 4 3 9 45 10 93 1 72 -2 94 -19 121 -11 17 -23 32
-27 33 -5 0 -18 2 -30 3 -13 2 -23 -1 -23 -6z m70 -1166 c37 -17 70 -46 70
-61 0 -5 7 -11 15 -14 8 -4 23 -24 34 -45 17 -34 20 -54 16 -128 -4 -80 -10
-130 -15 -144 -1 -3 -2 -8 -1 -12 0 -5 -3 -8 -9 -8 -6 0 -9 -3 -8 -8 3 -8 -36
-62 -45 -62 -2 0 -22 -8 -43 -17 -22 -9 -46 -18 -54 -20 -53 -11 -226 -26
-315 -27 l-70 -1 0 45 c0 25 6 62 12 82 7 20 15 52 18 70 8 47 14 65 42 133
30 73 37 90 54 135 16 45 19 48 49 53 14 3 52 16 84 30 65 27 107 27 166 -1z"/>
<path d="M5022 5817 c-15 -16 -40 -41 -56 -55 -17 -15 -46 -43 -67 -62 -65
-63 -159 -145 -163 -143 -3 1 -26 -19 -52 -43 -57 -54 -99 -85 -108 -79 -3 3
-4 2 -1 -1 2 -4 -28 -29 -68 -57 -40 -28 -90 -65 -113 -84 -23 -18 -44 -33
-48 -33 -4 0 -12 -5 -19 -10 -38 -32 -127 -85 -171 -103 -28 -11 -58 -26 -67
-34 -18 -15 -21 -43 -5 -43 7 0 6 -4 -2 -8 -9 -6 -6 -14 12 -29 17 -15 34 -20
64 -18 40 3 129 44 164 75 9 8 34 24 55 35 21 11 59 36 84 55 25 19 58 44 73
55 16 11 33 25 40 30 6 6 35 26 64 45 28 18 52 37 52 42 0 4 6 8 13 8 6 1 32
21 57 45 25 25 48 45 51 45 9 0 70 52 129 110 25 25 56 54 68 64 l22 19 -1
-127 c-1 -70 -5 -144 -9 -164 -13 -59 -23 -139 -35 -264 -3 -37 -9 -80 -12
-95 -3 -15 -6 -34 -6 -40 0 -7 -3 -13 -7 -13 -4 0 -6 -10 -5 -22 1 -13 0 -27
-4 -33 -3 -5 -6 -19 -6 -30 -1 -11 -4 -45 -8 -75 -4 -30 -9 -82 -12 -115 -2
-33 -5 -60 -6 -60 -7 0 -6 -181 1 -194 5 -9 14 -30 21 -47 13 -32 64 -61 75
-43 3 5 8 7 12 5 18 -10 29 24 25 75 -10 125 -4 283 12 309 6 9 4 11 -5 5 -10
-6 -11 -4 -4 6 5 8 9 23 10 34 3 57 19 159 28 173 2 4 7 35 11 67 4 33 9 71
11 85 3 14 7 52 9 85 2 34 7 76 10 95 15 79 28 172 26 190 0 8 -1 31 0 50 0
19 0 41 0 48 -1 16 -1 39 0 55 3 51 -14 203 -24 209 -7 4 -8 8 -2 8 5 0 0 7
-12 15 -31 22 -70 15 -101 -18z"/>
<path d="M2354 5240 c-6 -6 -24 -13 -40 -14 -16 -2 -38 -6 -49 -11 -11 -4 -27
-9 -35 -12 -8 -4 -22 -7 -30 -9 -8 -2 -31 -6 -50 -10 -19 -4 -38 -8 -42 -8 -3
-1 -10 -4 -13 -8 -4 -4 -24 0 -44 8 -20 9 -58 23 -86 31 -27 8 -54 18 -60 22
-19 12 -62 6 -80 -13 -20 -20 -27 -53 -13 -62 4 -3 6 -9 3 -14 -3 -5 4 -11 15
-15 11 -3 20 -11 20 -16 0 -5 3 -8 8 -7 11 2 62 -13 62 -20 0 -3 -18 -21 -39
-41 -21 -20 -40 -40 -41 -46 -2 -5 -5 -16 -7 -22 -7 -17 3 -362 10 -391 11
-41 70 -136 107 -170 54 -51 135 -87 220 -98 219 -30 415 -37 435 -17 8 8 15
17 16 21 0 4 2 17 5 30 2 12 -1 22 -6 22 -6 0 -10 6 -10 13 0 17 -59 36 -100
33 -16 -1 -30 2 -30 8 0 6 -5 5 -12 -2 -7 -7 -17 -8 -29 -2 -10 6 -20 6 -23 2
-5 -8 -94 1 -168 17 -21 4 -35 4 -32 0 3 -5 -6 -5 -20 1 -14 5 -26 7 -26 4 0
-4 -7 -1 -15 6 -8 7 -15 10 -15 7 0 -11 -59 19 -95 47 -19 16 -35 34 -35 42 0
8 -4 14 -10 14 -5 0 -10 6 -10 14 0 8 -4 16 -10 18 -9 3 -24 145 -20 203 1 17
1 37 1 45 -1 8 -1 26 0 40 0 14 1 32 1 40 1 17 37 60 50 60 5 0 16 7 24 15 16
16 64 21 64 7 0 -9 126 -92 141 -92 5 0 9 -4 9 -10 0 -5 6 -10 13 -10 7 0 23
-9 35 -20 12 -12 22 -17 22 -13 0 4 7 -1 15 -11 8 -11 15 -16 15 -12 0 5 7 3
15 -4 8 -7 15 -10 15 -7 0 4 21 -3 46 -14 26 -11 49 -17 52 -15 2 3 14 0 26
-6 25 -14 205 -19 221 -6 41 34 62 57 72 80 13 30 12 146 -2 168 -5 8 -10 18
-10 21 0 3 -13 26 -29 51 -28 44 -115 108 -147 108 -9 0 -19 3 -23 7 -4 4 -17
8 -29 10 -12 1 -38 5 -57 8 -38 7 -109 7 -121 -1 -4 -2 -9 1 -11 6 -2 7 -7 7
-14 0z m161 -140 c22 -6 45 -12 50 -13 61 -17 101 -66 111 -137 5 -36 3 -40
-20 -46 -22 -5 -92 1 -131 12 -5 2 -20 5 -32 8 -37 8 -143 58 -143 67 0 5 -15
16 -32 24 -66 31 -77 40 -67 56 5 8 9 11 9 7 0 -3 21 2 48 11 55 21 150 25
207 11z"/>
<path d="M790 3630 c0 -4 -15 -12 -32 -16 -126 -27 -199 -191 -154 -343 8 -28
12 -51 8 -51 -4 0 -2 -4 3 -8 16 -11 95 -169 88 -176 -3 -3 2 -8 11 -12 9 -3
14 -10 11 -14 -3 -4 2 -13 10 -20 8 -7 15 -17 15 -22 0 -5 16 -24 35 -43 19
-20 53 -60 75 -90 22 -30 45 -55 50 -55 6 0 10 -4 10 -8 0 -5 18 -28 40 -51
22 -23 47 -55 55 -71 17 -33 22 -29 -100 -78 -22 -8 -43 -20 -46 -24 -3 -5
-16 -10 -27 -11 -12 -1 -22 -4 -22 -7 0 -5 -18 -9 -57 -12 -7 -1 -13 -5 -13
-10 0 -5 -4 -7 -9 -3 -5 3 -12 1 -15 -4 -4 -5 -14 -8 -24 -7 -9 2 -32 -3 -49
-11 -18 -7 -33 -10 -33 -6 0 5 -15 7 -32 7 -18 -1 -42 3 -52 9 -14 7 -28 5
-51 -7 -57 -31 -38 -115 30 -132 39 -10 208 4 233 20 6 4 12 5 12 2 0 -3 16 2
35 10 19 8 35 12 35 9 0 -3 13 1 30 10 16 8 33 16 37 16 5 1 31 12 58 24 58
26 90 38 90 33 0 -2 16 8 35 22 31 21 49 39 78 75 8 11 13 109 4 101 -3 -3
-20 17 -38 45 -18 28 -63 85 -101 126 -37 42 -74 85 -82 97 -8 11 -22 28 -31
36 -38 37 -103 135 -88 135 2 0 -7 14 -19 31 -12 17 -20 34 -16 38 3 3 2 6 -4
6 -37 0 -80 226 -47 248 6 4 13 14 16 23 6 16 93 51 103 41 9 -10 45 -9 45 0
0 5 5 6 10 3 6 -4 34 -9 62 -11 28 -2 58 -10 66 -17 8 -6 16 -10 16 -7 1 2 12
-3 26 -13 13 -9 21 -17 16 -17 -17 0 53 -49 76 -54 35 -6 66 30 61 69 -3 16
-10 33 -16 37 -7 4 -8 8 -3 8 14 0 -86 90 -101 90 -7 0 -13 5 -13 12 0 6 -3 9
-6 5 -3 -3 -18 -1 -32 4 -15 6 -76 12 -137 15 -60 3 -116 7 -122 9 -7 3 -13 0
-13 -5z"/>
<path d="M6666 3553 c-33 -17 -34 -30 -40 -303 -5 -223 -11 -321 -22 -350 -11
-32 -19 -136 -28 -375 -4 -116 -10 -190 -16 -190 -1 0 -4 -16 -5 -35 -4 -39
14 -87 42 -111 10 -9 25 -26 33 -37 8 -12 20 -22 27 -22 7 0 13 -4 13 -9 0
-12 47 -30 93 -36 21 -2 42 -7 47 -10 6 -3 10 -1 10 5 0 7 6 8 17 2 11 -7 29
-5 54 3 20 8 40 11 43 8 3 -4 6 -1 6 5 0 7 5 12 11 12 12 0 29 17 45 45 8 15
7 26 -5 47 -9 15 -22 28 -28 29 -7 1 -19 2 -25 3 -7 2 -28 -3 -47 -11 -39 -15
-121 -17 -121 -3 0 5 -3 9 -7 8 -5 -1 -18 4 -30 12 -25 16 -31 40 -10 40 6 0
26 13 42 29 17 16 56 54 88 85 31 31 57 54 57 51 0 -7 63 48 107 94 18 19 33
38 33 43 0 5 6 6 13 2 6 -4 9 -3 4 1 -4 5 -1 18 6 29 26 39 27 68 6 103 -18
28 -23 31 -41 22 -15 -8 -19 -8 -14 0 4 6 3 11 -2 11 -13 0 -59 -54 -66 -77
-4 -11 -34 -45 -68 -74 -34 -30 -81 -73 -106 -96 -24 -24 -48 -43 -54 -43 -5
0 -6 -4 -3 -10 3 -5 1 -10 -5 -10 -8 0 -11 46 -9 165 2 91 6 165 9 165 3 0 5
14 4 32 0 18 3 48 7 68 4 20 11 67 14 105 11 123 14 145 20 155 3 5 1 11 -3
14 -5 3 -6 26 -2 50 4 25 3 50 -1 57 -4 6 -3 25 2 42 5 16 6 34 2 40 -8 13
-10 77 -2 77 5 0 2 57 -5 95 -3 11 -5 26 -5 33 -1 6 -8 12 -16 12 -8 0 -15 4
-15 8 0 13 -25 10 -54 -5z"/>
<path d="M7366 3508 c5 -8 0 -9 -15 -5 -13 3 -20 3 -17 0 3 -3 -3 -13 -13 -22
-12 -11 -17 -27 -15 -51 2 -19 5 -61 7 -92 3 -31 7 -60 10 -65 8 -12 20 -82
16 -90 -2 -5 -45 -8 -96 -8 -74 0 -96 -3 -110 -17 -18 -19 -26 -68 -11 -68 4
0 8 -7 8 -16 0 -10 6 -14 15 -10 8 3 15 2 15 -3 0 -4 6 -8 13 -8 31 -1 111
-13 115 -18 3 -3 11 0 18 6 8 7 14 7 19 -1 3 -6 11 -8 16 -4 12 7 11 -189 -1
-244 -5 -20 -11 -50 -13 -67 -3 -16 -12 -57 -20 -90 -17 -68 -28 -136 -32
-212 -3 -38 1 -55 13 -67 20 -18 87 -32 77 -16 -3 5 -2 10 4 10 21 0 34 42 47
160 3 30 14 87 24 125 17 64 26 109 36 190 2 17 4 61 4 99 1 75 5 90 23 79 7
-4 23 -9 36 -11 13 -2 30 -10 38 -18 40 -39 83 -46 112 -16 16 16 23 82 9 82
-4 0 -8 6 -8 13 0 11 -52 49 -72 53 -5 1 -10 3 -13 4 -3 1 -8 3 -12 4 -5 1
-12 4 -18 7 -5 3 -26 6 -45 8 -19 1 -39 6 -44 11 -6 6 -7 10 -3 10 3 0 3 10
-2 23 -5 13 -12 41 -15 63 -3 21 -8 50 -11 64 -3 14 -7 39 -10 55 -2 17 -6 37
-8 45 -2 8 -7 31 -11 50 -5 24 -17 41 -37 53 -17 9 -27 11 -23 5z"/>
<path d="M5865 3478 c-16 -10 -23 -18 -15 -18 12 0 12 -2 2 -9 -18 -11 -8 -59
17 -82 57 -54 132 42 80 102 -25 29 -45 31 -84 7z"/>
<path d="M3401 3411 c-14 -10 -26 -27 -28 -37 -3 -18 11 -88 25 -124 3 -8 6
-17 6 -20 1 -3 10 -15 20 -26 15 -18 24 -20 47 -14 15 5 30 6 33 2 3 -3 6 2 6
11 0 10 4 17 8 17 14 0 8 61 -13 125 -19 59 -45 102 -45 74 0 -10 -3 -10 -12
-1 -16 16 -18 15 -47 -7z"/>
<path d="M3130 3360 c0 -5 -7 -10 -15 -10 -8 0 -15 -7 -15 -15 0 -8 -4 -15
-10 -15 -5 0 -9 -3 -8 -7 1 -5 -1 -21 -5 -38 -4 -16 -9 -44 -12 -61 -2 -17
-12 -50 -21 -75 -8 -24 -17 -51 -19 -60 -2 -8 -10 -31 -17 -50 -8 -18 -23 -67
-32 -106 -10 -40 -22 -73 -26 -73 -4 0 -15 11 -24 25 -9 13 -29 31 -44 38 -31
16 -122 20 -122 5 0 -5 -4 -6 -10 -3 -5 3 -10 2 -10 -3 0 -4 -10 -19 -22 -32
-13 -14 -22 -28 -20 -32 1 -5 -2 -8 -8 -8 -6 0 -9 -3 -8 -7 1 -5 -9 -42 -24
-83 -45 -130 -48 -145 -48 -214 0 -80 25 -138 70 -161 51 -27 90 -16 155 44
19 17 35 28 36 24 0 -5 4 1 9 12 9 20 9 20 9 0 1 -33 72 -77 87 -54 3 5 10 7
15 4 5 -4 9 0 9 9 0 8 4 16 9 18 5 2 13 23 16 48 4 25 9 56 12 70 2 14 6 39 8
55 11 97 18 133 30 160 33 72 54 125 50 125 -2 0 2 12 10 27 8 15 12 30 9 35
-3 4 -1 8 4 8 5 0 9 6 9 13 1 21 13 80 28 142 9 33 18 69 20 80 18 71 16 111
-5 138 -12 16 -25 26 -27 23 -3 -3 -14 -1 -24 5 -13 6 -19 6 -19 -1z m-270
-619 c0 -6 5 -11 10 -11 13 0 13 -37 0 -45 -6 -4 -8 -10 -5 -15 3 -5 -1 -15
-9 -23 -8 -8 -13 -17 -11 -19 3 -2 -10 -21 -29 -41 -18 -20 -32 -38 -31 -39 2
-2 -8 -11 -21 -21 l-24 -18 4 53 c2 29 5 54 6 56 1 1 4 7 5 12 1 6 3 11 4 13
2 1 5 13 7 27 3 13 16 49 29 78 l25 55 20 -26 c11 -14 20 -30 20 -36z"/>
<path d="M1530 3282 c-14 -5 -44 -40 -45 -52 -1 -3 -4 -27 -9 -55 -4 -27 -9
-66 -12 -85 -13 -101 -12 -99 -47 -94 -110 15 -221 25 -214 17 3 -2 -2 -13
-11 -23 -17 -21 -24 -60 -10 -60 4 0 8 -7 8 -16 0 -8 4 -13 9 -10 5 4 11 2 13
-3 4 -12 120 -33 176 -32 27 1 27 4 1 -88 -12 -42 -22 -80 -23 -86 -1 -5 -10
-24 -19 -42 -20 -38 -22 -99 -4 -117 21 -21 57 -38 57 -26 0 5 3 9 8 9 23 -4
35 5 49 39 8 20 16 42 17 47 1 6 5 16 9 23 5 6 6 12 2 12 -3 0 1 14 10 30 9
17 13 30 11 30 -3 0 0 15 5 33 6 17 12 39 14 47 23 85 18 82 115 67 108 -17
134 -16 149 6 41 58 -2 108 -106 122 -105 14 -102 12 -96 53 2 20 7 44 10 52
4 13 9 56 16 150 1 16 -5 28 -20 36 -13 6 -21 13 -18 15 6 7 -27 8 -45 1z"/>
<path d="M5825 3112 c3 -3 -4 -12 -14 -21 -14 -12 -18 -27 -15 -61 2 -25 6
-76 8 -115 2 -38 9 -82 14 -96 6 -15 8 -30 5 -33 -5 -4 -5 -33 -2 -141 2 -55
-14 -244 -21 -252 -2 -2 -3 -6 -5 -10 -1 -5 -5 -15 -8 -23 -3 -8 -20 -58 -38
-110 -17 -52 -35 -100 -40 -106 -5 -6 -6 -14 -2 -17 3 -4 2 -7 -4 -7 -10 0
-29 -64 -25 -82 1 -5 -2 -8 -7 -8 -5 0 -12 -11 -15 -25 -7 -27 -26 -34 -26 -9
0 8 -4 12 -10 9 -5 -3 -10 -2 -10 2 0 5 -16 8 -34 9 -19 0 -33 -3 -30 -8 3 -4
-2 -11 -11 -14 -9 -4 -14 -13 -11 -20 3 -8 1 -14 -5 -14 -14 0 29 -78 51 -92
11 -7 20 -18 20 -25 0 -7 3 -13 8 -14 4 0 16 -3 27 -6 37 -9 66 -5 85 12 25
23 85 147 100 208 7 26 17 47 23 47 6 0 8 3 4 6 -3 4 3 24 14 45 11 22 17 39
13 39 -4 0 -2 6 4 13 8 9 22 57 27 87 0 3 3 10 6 15 11 18 32 89 36 120 2 17
6 109 9 205 3 96 7 180 8 185 2 6 8 -1 14 -15 5 -14 23 -41 38 -61 44 -54 87
-157 87 -204 0 -8 4 -15 9 -15 4 0 8 -11 8 -25 0 -14 5 -25 10 -25 6 0 10 -8
10 -18 0 -10 9 -25 20 -35 11 -9 20 -22 20 -29 0 -7 13 -23 28 -35 15 -12 38
-31 52 -43 49 -43 106 -54 199 -39 21 3 53 38 46 49 -4 6 -1 10 4 10 7 0 7 8
-1 22 -23 40 -33 45 -83 43 -90 -5 -155 60 -199 199 -17 52 -16 56 27 101 32
34 127 192 120 199 -3 3 -1 11 3 18 16 26 9 63 -18 93 -27 29 -31 30 -110 30
-68 0 -88 -4 -109 -20 -27 -20 -66 -82 -61 -97 1 -4 -1 -8 -4 -8 -8 0 -34 27
-34 35 0 12 -27 34 -34 28 -3 -4 -6 -1 -6 4 0 7 -12 9 -30 7 -28 -5 -30 -3
-31 25 -2 43 -3 48 -11 57 -5 4 -8 16 -8 26 0 11 -4 17 -9 14 -5 -4 -11 -1
-13 6 -2 6 -18 12 -36 13 -17 1 -30 -1 -27 -3z m381 -246 c-8 -15 -16 -23 -20
-18 -5 9 23 56 30 49 2 -2 -2 -16 -10 -31z"/>
<path d="M3822 3037 c-17 -7 -49 -30 -70 -52 -21 -22 -59 -59 -83 -82 -59 -56
-63 -61 -82 -118 -32 -93 -15 -315 25 -315 5 0 7 -4 4 -8 -3 -5 12 -26 34 -48
54 -54 67 -64 74 -57 3 4 6 2 6 -4 0 -6 9 -9 22 -5 13 3 19 1 14 -6 -4 -7 4
-7 25 1 32 12 92 60 89 72 -2 8 49 114 70 145 10 14 18 28 19 33 1 4 2 9 2 12
1 3 3 10 4 15 1 6 3 11 5 13 1 1 3 9 5 17 2 8 7 29 11 45 15 58 13 247 -3 280
-30 61 -103 88 -171 62z m54 -219 c-3 -46 -7 -96 -11 -113 -8 -36 -97 -215
-107 -215 -4 0 -17 14 -29 31 -15 22 -24 53 -29 101 -3 38 -4 71 -1 73 2 3 6
17 7 31 4 37 46 87 111 132 32 22 59 40 60 41 2 1 1 -36 -1 -81z"/>
<path d="M4654 3013 c-21 -23 -28 -60 -13 -73 15 -14 38 -80 33 -94 -3 -9 -2
-16 4 -16 6 0 8 -9 5 -20 -7 -27 -20 -25 -29 3 -14 47 -94 105 -136 98 -5 0
-8 3 -8 8 0 4 -11 7 -25 4 -83 -12 -116 -20 -145 -31 -14 -5 -29 -10 -34 -10
-5 0 -12 -4 -15 -9 -3 -5 -27 -20 -53 -33 -27 -14 -48 -29 -48 -35 0 -5 -4 -5
-8 1 -7 12 -31 17 -65 15 -10 0 -15 -6 -12 -11 3 -6 0 -13 -8 -16 -11 -4 -15
-20 -14 -55 1 -27 0 -49 -3 -49 -3 0 -5 -21 -4 -47 1 -27 -2 -66 -7 -88 -5
-22 -11 -52 -14 -66 -4 -28 -32 -133 -42 -159 -3 -8 -7 -19 -8 -25 -7 -41 -19
-74 -24 -71 -4 3 -7 -3 -8 -12 -1 -9 -7 -30 -14 -47 -7 -16 -13 -32 -14 -35
-1 -3 -5 -12 -8 -20 -12 -25 -1 -80 19 -95 48 -36 102 -5 125 73 7 23 16 42
21 42 4 0 7 3 6 8 -2 6 11 46 39 122 8 21 13 40 18 74 2 16 9 44 15 61 6 18
13 48 15 66 5 44 12 74 28 129 14 47 29 52 87 30 7 -3 18 -5 85 -14 33 -5 64
-11 70 -14 12 -7 32 -10 113 -13 54 -2 62 -4 56 -18 -5 -9 -8 -44 -8 -78 -1
-70 18 -97 66 -99 23 -1 92 44 89 58 -3 9 25 68 32 68 4 0 6 4 3 8 -3 5 1 19
8 33 6 13 25 65 41 114 27 86 49 132 69 146 5 4 44 -11 87 -32 43 -21 83 -39
89 -39 6 0 25 -8 43 -17 18 -9 35 -16 39 -15 16 4 24 -36 19 -93 -13 -133 28
-267 94 -303 17 -10 32 -19 35 -22 8 -8 52 -10 88 -4 18 3 48 19 67 36 19 16
35 27 35 23 0 -10 52 45 76 80 25 36 45 94 49 143 2 21 4 39 5 42 2 3 1 10 0
15 -1 6 -4 28 -6 50 -8 66 -10 79 -22 108 -7 16 -12 30 -12 33 0 10 -45 100
-56 112 -7 6 -15 21 -19 31 -3 10 -20 25 -38 32 -18 7 -35 17 -38 22 -7 10
-70 17 -84 8 -5 -3 -14 -6 -19 -6 -5 0 -31 -42 -57 -93 -26 -51 -49 -96 -52
-99 -3 -3 -18 2 -34 10 -24 13 -57 27 -73 32 -3 0 -34 15 -70 31 -76 36 -96
43 -140 49 -37 4 -106 -20 -114 -41 -3 -8 -11 -14 -17 -14 -7 0 -10 3 -6 6 4
4 -28 67 -58 112 -1 1 -17 7 -35 12 -28 8 -35 6 -56 -17z m861 -299 c-1 -13 1
-24 5 -24 9 0 7 -103 -3 -139 -9 -33 -35 -71 -49 -71 -6 0 -8 -3 -5 -7 10 -9
-64 -52 -79 -46 -18 7 -44 67 -42 97 2 17 8 26 20 26 10 0 27 9 38 20 11 11
17 20 14 20 -4 0 -1 7 6 15 7 8 8 15 3 15 -6 0 -8 11 -5 25 2 14 -5 42 -17 65
-19 37 -20 44 -7 74 8 18 24 46 37 60 l24 27 31 -67 c18 -37 31 -78 29 -90z
m-990 55 c4 -11 11 -19 16 -19 5 0 9 -7 9 -15 0 -11 -7 -14 -22 -11 -13 2 -39
7 -58 11 -67 12 -75 13 -95 15 -19 1 -19 1 -2 11 9 6 27 12 39 14 11 3 23 6
25 9 3 3 22 4 44 4 29 0 40 -5 44 -19z"/>
<path d="M3284 2973 c2 -3 -3 -13 -12 -23 -12 -14 -16 -43 -17 -117 -2 -101
-4 -118 -20 -143 -5 -8 -10 -21 -11 -30 -1 -8 -5 -25 -8 -38 -5 -22 10 -70 23
-73 29 -7 68 -3 78 7 11 11 32 52 38 77 2 4 4 9 5 12 1 3 4 10 5 15 1 6 3 11
5 13 8 10 14 55 17 136 5 103 -6 146 -41 158 -24 8 -68 12 -62 6z"/>
<path d="M2010 2942 c-21 -7 -52 -41 -46 -50 2 -4 1 -26 -3 -49 -5 -23 -5 -47
0 -54 4 -7 5 -18 2 -23 -4 -5 -6 -28 -5 -50 2 -23 3 -45 3 -51 0 -5 -1 -27 -3
-48 -3 -21 -2 -40 2 -42 3 -2 7 -18 8 -37 2 -18 7 -34 12 -36 6 -2 10 -10 10
-17 0 -17 85 -69 99 -61 5 4 12 3 14 -2 3 -4 23 -6 44 -4 21 2 46 4 56 5 9 1
17 6 17 11 0 5 3 6 6 3 23 -23 224 167 224 212 0 6 5 11 11 11 5 0 7 5 4 10
-3 6 -1 10 6 10 7 0 9 3 6 6 -3 4 -2 15 4 26 17 32 23 82 17 133 -5 33 -45 65
-82 65 -53 0 -69 -35 -52 -109 6 -26 -24 -97 -56 -131 -10 -11 -17 -20 -14
-20 12 0 -63 -69 -91 -84 -39 -20 -87 -21 -102 -2 -8 10 -11 63 -9 174 2 88 0
158 -4 155 -5 -2 -8 0 -8 5 0 12 -32 47 -45 48 -5 1 -17 -1 -25 -4z"/>
</g>
</svg>
